<?xml version="1.0" encoding="UTF-8" standalone="no"?>
<svg
   viewBox="-124.608 159.875 319.4757 41.355612"
   version="1.1"
   id="svg852"
   sodipodi:docname="catalog_demo_logo.svg"
   width="319.47571"
   height="41.35561"
   inkscape:version="1.1.1 (c3084ef, 2021-09-22)"
   xmlns:inkscape="http://www.inkscape.org/namespaces/inkscape"
   xmlns:sodipodi="http://sodipodi.sourceforge.net/DTD/sodipodi-0.dtd"
   xmlns="http://www.w3.org/2000/svg"
   xmlns:svg="http://www.w3.org/2000/svg">
  <defs
     id="defs856">
    <rect
       x="237.50954"
       y="-68.742599"
       width="78.783653"
       height="39.00563"
       id="rect3441" />
  </defs>
  <sodipodi:namedview
     id="namedview854"
     pagecolor="#ffffff"
     bordercolor="#666666"
     borderopacity="1.0"
     inkscape:pageshadow="2"
     inkscape:pageopacity="0.0"
     inkscape:pagecheckerboard="0"
     showgrid="false"
     inkscape:zoom="1.3099696"
     inkscape:cx="96.185441"
     inkscape:cy="53.436356"
     inkscape:window-width="1440"
     inkscape:window-height="790"
     inkscape:window-x="0"
     inkscape:window-y="25"
     inkscape:window-maximized="1"
     inkscape:current-layer="svg852" />
  <text
     xml:space="preserve"
     transform="translate(-125.599,219.53798)"
     id="text3439"
     style="font-size:17.8689px;line-height:0.8;font-family:'Nanum Pen';-inkscape-font-specification:'Nanum Pen, Normal';white-space:pre;shape-inside:url(#rect3441)" />
  <g
     id="g15715"
     transform="translate(-0.991,59.66298)">
    <path
       d="m 191.33597,114.50976 4.52273,13.52894 -4.52273,13.52893 h -2.70015 l 4.52274,-13.52893 -4.52274,-13.52894 z"
       style="fill:#333333;fill-opacity:1;stroke-width:1.12727"
       id="path848-4-9"
       sodipodi:nodetypes="ccccccc" />
    <path
       d="m 86.856095,114.50976 -4.522736,13.52894 4.522736,13.52893 h 2.700143 l -4.522736,-13.52893 4.522736,-13.52894 z"
       style="fill:#333333;fill-opacity:1;stroke-width:1.12727"
       id="path848-4-9-4"
       sodipodi:nodetypes="ccccccc" />
    <path
       d="m -20.373133,141.29525 c -3.42435,0 -6.416494,-1.27998 -8.976444,-3.83992 -2.559945,-2.55995 -3.839922,-5.9178 -3.839922,-10.07357 0,-4.189 1.313221,-7.53023 3.939661,-10.02369 2.626443,-2.49345 5.668458,-3.74018 9.126046,-3.74018 2.692932,0 5.036786,0.89765 7.03155,2.69293 v -2.24411 h 7.5302284 v 27.24139 h -7.5302284 v -2.60605 c -2.127751,1.7288 -4.554713,2.5932 -7.280891,2.5932 z m -5.286131,-13.76388 c 0,2.19424 0.648298,3.98953 1.944901,5.38586 1.296591,1.36309 2.80929,2.04464 4.538083,2.04464 1.728798,0 3.191629,-0.68155 4.388482,-2.04464 1.196864,-1.39633 1.795295,-3.17499 1.795295,-5.33599 0,-2.19424 -0.598431,-4.02277 -1.795295,-5.4856 -1.196853,-1.46283 -2.676307,-2.19424 -4.438345,-2.19424 -1.762046,0 -3.274741,0.73141 -4.538095,2.19424 -1.263347,1.42958 -1.895026,3.24149 -1.895026,5.43573 z"
       style="font-style:normal;font-variant:normal;font-weight:bold;font-stretch:normal;font-size:96px;line-height:25px;font-family:'Montserrat Alternates';-inkscape-font-specification:'Montserrat Alternates Bold';text-align:start;letter-spacing:0px;word-spacing:0px;writing-mode:lr-tb;text-anchor:start;display:inline;fill:#333333;fill-opacity:1;stroke:none;stroke-width:0.519468px;stroke-linecap:butt;stroke-linejoin:miter;stroke-opacity:1"
       id="path4616-0"
       inkscape:connector-curvature="0"
       sodipodi:nodetypes="sssssccccccsscscssscs"
       inkscape:export-filename="/Users/jsheunis/Desktop/path4588-1.png"
       inkscape:export-xdpi="299.96201"
       inkscape:export-ydpi="299.96201" />
    <path
       d="m -68.642585,141.29525 c -3.42435,0 -6.41649,-1.27998 -8.97644,-3.83992 -2.559949,-2.55995 -3.839922,-5.9178 -3.839922,-10.07357 0,-4.189 1.313218,-7.53023 3.939661,-10.02369 2.626439,-2.49345 5.668451,-3.74018 9.126046,-3.74018 2.692932,0 5.036779,0.89765 7.031543,2.69293 v -2.24411 h 7.530235 v 27.24139 h -7.530235 v -2.60605 c -2.127751,1.7288 -4.554714,2.5932 -7.280888,2.5932 z m -5.286127,-13.76388 c 0,2.19424 0.648298,3.98953 1.94489,5.38586 1.296602,1.36309 2.809297,2.04464 4.538094,2.04464 1.728794,0 3.191618,-0.68155 4.388482,-2.04464 1.196857,-1.39633 1.795287,-3.17499 1.795287,-5.33599 0,-2.19424 -0.59843,-4.02277 -1.795287,-5.4856 -1.196864,-1.46283 -2.67631,-2.19424 -4.438349,-2.19424 -1.762046,0 -3.274744,0.73141 -4.538091,2.19424 -1.263351,1.42958 -1.895026,3.24149 -1.895026,5.43573 z"
       style="font-style:normal;font-variant:normal;font-weight:bold;font-stretch:normal;font-size:96px;line-height:25px;font-family:'Montserrat Alternates';-inkscape-font-specification:'Montserrat Alternates Bold';text-align:start;letter-spacing:0px;word-spacing:0px;writing-mode:lr-tb;text-anchor:start;display:inline;fill:#333333;fill-opacity:1;stroke:none;stroke-width:0.519468px;stroke-linecap:butt;stroke-linejoin:miter;stroke-opacity:1"
       id="path4616-0-0"
       inkscape:connector-curvature="0"
       sodipodi:nodetypes="sssssccccccsscscssscs"
       inkscape:export-filename="/Users/jsheunis/Desktop/path4588-1.png"
       inkscape:export-xdpi="299.96201"
       inkscape:export-ydpi="299.96201" />
    <path
       d="m 43.480825,141.29525 c -3.424339,0 -6.416487,-1.27998 -8.976433,-3.83992 -2.55995,-2.55995 -3.839926,-5.9178 -3.839926,-10.07357 0,-4.189 1.313221,-7.53023 3.939664,-10.02369 2.62644,-2.49345 5.668444,-3.74018 9.12605,-3.74018 2.692933,0 5.036783,0.89765 7.031532,2.69293 v -2.24411 h 7.53025 v 27.24139 h -7.53025 v -2.60605 c -2.12774,1.7288 -4.554713,2.5932 -7.280887,2.5932 z m -5.286124,-13.76388 c 0,2.19424 0.648298,3.98953 1.944904,5.38586 1.296596,1.36309 2.809276,2.04464 4.538091,2.04464 1.72879,0 3.191621,-0.68155 4.388471,-2.04464 1.196853,-1.39633 1.795287,-3.17499 1.795287,-5.33599 0,-2.19424 -0.598434,-4.02277 -1.795287,-5.4856 -1.19685,-1.46283 -2.676307,-2.19424 -4.438342,-2.19424 -1.762042,0 -3.274744,0.73141 -4.538091,2.19424 -1.263354,1.42958 -1.895033,3.24149 -1.895033,5.43573 z"
       style="font-style:normal;font-variant:normal;font-weight:bold;font-stretch:normal;font-size:96px;line-height:25px;font-family:'Montserrat Alternates';-inkscape-font-specification:'Montserrat Alternates Bold';text-align:start;letter-spacing:0px;word-spacing:0px;writing-mode:lr-tb;text-anchor:start;display:inline;fill:#ffa200;fill-opacity:1;stroke:none;stroke-width:0.519468px;stroke-linecap:butt;stroke-linejoin:miter;stroke-opacity:1"
       id="path4616-0-3"
       inkscape:connector-curvature="0"
       sodipodi:nodetypes="sssssccccccsscscssscs"
       inkscape:export-filename="/Users/jsheunis/Desktop/path4588-1.png"
       inkscape:export-xdpi="299.96201"
       inkscape:export-ydpi="299.96201" />
    <path
       d="m -41.897091,114.7997 -7.32e-4,16.68337 c -3.2e-5,1.03063 0.266534,1.84516 0.798471,2.44359 0.531937,0.56518 1.163612,0.84777 1.895025,0.84777 1.396338,0 1.896573,0.0172 3.540711,0.0107 l 0.0026,3.26022 0.0026,3.26021 c -2.694545,0.005 -2.000139,10e-4 -4.593333,10e-4 -2.55995,0 -4.737568,-0.84777 -6.532852,-2.54332 -1.762046,-1.69555 -2.643065,-4.00615 -2.643065,-6.93181 v -17.03234 l 3.765132,2.2187 z"
       style="font-style:normal;font-variant:normal;font-weight:bold;font-stretch:normal;font-size:96px;line-height:25px;font-family:'Montserrat Alternates';-inkscape-font-specification:'Montserrat Alternates Bold';text-align:start;letter-spacing:0px;word-spacing:0px;writing-mode:lr-tb;text-anchor:start;fill:#333333;fill-opacity:1;stroke:none;stroke-width:0.519468px;stroke-linecap:butt;stroke-linejoin:miter;stroke-opacity:1"
       id="path4584-3-1"
       inkscape:connector-curvature="0"
       sodipodi:nodetypes="cscscccscsccc"
       inkscape:export-filename="/Users/jsheunis/Desktop/path4588-1.png"
       inkscape:export-xdpi="299.96201"
       inkscape:export-ydpi="299.96201" />
    <path
       d="m -49.3878,131.84362 -1.97e-4,-12.89116 -2.01e-4,-10.67257 h 3.76518 3.765179 v 5.81032 h 6.482988 v 5.83469 h -6.482988 l -3.65e-4,11.56963 -1.9e-5,0.84271 -3.547128,1.12859 -3.982321,-1.07418"
       style="font-style:normal;font-variant:normal;font-weight:bold;font-stretch:normal;font-size:96px;line-height:25px;font-family:'Montserrat Alternates';-inkscape-font-specification:'Montserrat Alternates Bold';text-align:start;letter-spacing:0px;word-spacing:0px;writing-mode:lr-tb;text-anchor:start;display:inline;fill:#333333;fill-opacity:1;stroke:none;stroke-width:0.519468px;stroke-linecap:butt;stroke-linejoin:miter;stroke-opacity:1"
       id="path4614-2"
       inkscape:connector-curvature="0"
       sodipodi:nodetypes="ccccccccccccc"
       inkscape:export-filename="/Users/jsheunis/Desktop/path4588-1.png"
       inkscape:export-xdpi="299.96201"
       inkscape:export-ydpi="299.96201" />
    <path
       d="m 69.602278,114.79969 -7.32e-4,16.68338 c -3.3e-5,1.03063 0.266534,1.84515 0.798471,2.44359 0.531936,0.56518 1.163612,0.84777 1.895025,0.84777 1.396338,0 1.896573,0.0172 3.540711,0.0107 l 0.0026,3.26022 0.0026,3.26021 c -2.694541,0.005 -2.000139,10e-4 -4.593333,10e-4 -2.55995,0 -4.737565,-0.84778 -6.532852,-2.54332 -1.762046,-1.69556 -2.643065,-4.00616 -2.643065,-6.93181 v -17.03235 l 3.765132,2.21871 z"
       style="font-style:normal;font-variant:normal;font-weight:bold;font-stretch:normal;font-size:96px;line-height:25px;font-family:'Montserrat Alternates';-inkscape-font-specification:'Montserrat Alternates Bold';text-align:start;letter-spacing:0px;word-spacing:0px;writing-mode:lr-tb;text-anchor:start;fill:#ffa200;fill-opacity:1;stroke:none;stroke-width:0.519468px;stroke-linecap:butt;stroke-linejoin:miter;stroke-opacity:1"
       id="path4584-3-1-6"
       inkscape:connector-curvature="0"
       sodipodi:nodetypes="cscscccscsccc"
       inkscape:export-filename="/Users/jsheunis/Desktop/path4588-1.png"
       inkscape:export-xdpi="299.96201"
       inkscape:export-ydpi="299.96201" />
    <path
       d="m 62.111569,131.84362 -1.97e-4,-12.89117 -2.02e-4,-10.67256 h 3.76518 3.765184 v 5.81032 h 6.482984 v 5.83469 h -6.482984 l -3.66e-4,11.56963 -1.8e-5,0.84271 -3.547124,1.12859 -3.982325,-1.07418"
       style="font-style:normal;font-variant:normal;font-weight:bold;font-stretch:normal;font-size:96px;line-height:25px;font-family:'Montserrat Alternates';-inkscape-font-specification:'Montserrat Alternates Bold';text-align:start;letter-spacing:0px;word-spacing:0px;writing-mode:lr-tb;text-anchor:start;display:inline;fill:#ffa200;fill-opacity:1;stroke:none;stroke-width:0.519468px;stroke-linecap:butt;stroke-linejoin:miter;stroke-opacity:1"
       id="path4614-2-4"
       inkscape:connector-curvature="0"
       sodipodi:nodetypes="ccccccccccccc"
       inkscape:export-filename="/Users/jsheunis/Desktop/path4588-1.png"
       inkscape:export-xdpi="299.96201"
       inkscape:export-ydpi="299.96201" />
    <path
       style="font-style:normal;font-variant:normal;font-weight:bold;font-stretch:normal;font-size:192px;line-height:25px;font-family:Montserrat;-inkscape-font-specification:'Montserrat Bold';text-align:start;letter-spacing:0px;word-spacing:0px;writing-mode:lr-tb;text-anchor:start;display:inline;fill:#333333;fill-opacity:1;stroke:none;stroke-width:0.303302px;stroke-linecap:butt;stroke-linejoin:miter;stroke-opacity:1"
       d="m -106.97696,100.48413 -4.3007,4.3007 4.37652,4.37652 h 0.638 c 2.13523,0 4.03765,0.50475 5.70701,1.51413 1.669369,0.97057 2.969701,2.34841 3.901436,4.13425 0.970564,1.78582 1.456081,3.84328 1.456081,6.17262 0,2.29053 -0.446462,4.32875 -1.339376,6.11458 -0.892918,1.78584 -2.135558,3.16427 -3.727281,4.13484 -0.56988,0.34748 -1.17065,0.62995 -1.80025,0.85303 0.43933,0.46726 3.939351,3.46663 3.939351,3.46663 l -2.799601,5.24496 c 2.16099,-0.422 4.16721,-1.10569 6.018021,-2.05261 3.377547,-1.70819 5.978804,-4.11477 7.803456,-7.22056 1.863478,-3.10579 2.795458,-6.65826 2.795458,-10.65697 0,-3.99871 -0.912747,-7.53136 -2.7374,-10.59833 -1.824656,-3.10579 -4.386858,-5.51296 -7.686766,-7.22115 -3.26108,-1.70818 -7.026869,-2.56264 -11.297339,-2.56264 z"
       id="path1711-6-2-1"
       inkscape:connector-curvature="0"
       sodipodi:nodetypes="cccsccssscccccsccsc"
       inkscape:export-xdpi="299.96201"
       inkscape:export-ydpi="299.96201"
       inkscape:export-filename="/Users/jsheunis/Desktop/path4588-1.png" />
    <path
       style="font-style:normal;font-variant:normal;font-weight:bold;font-stretch:normal;font-size:192px;line-height:25px;font-family:Montserrat;-inkscape-font-specification:'Montserrat Bold';text-align:start;letter-spacing:0px;word-spacing:0px;writing-mode:lr-tb;text-anchor:start;fill:#ffa200;fill-opacity:1;stroke:none;stroke-width:0.303302px;stroke-linecap:butt;stroke-linejoin:miter;stroke-opacity:1"
       d="m -123.617,100.48413 v 40.8223 c 0,0 15.16774,0.004 16.41316,0 1.24541,-0.004 1.77317,-0.22747 1.77317,-0.22747 l 2.85581,-4.46543 -4.57021,-3.92569 h -5.81496 v -23.52649 l -2.0295,-2.03009 -2.34644,-2.34643 -10e-4,-6.2e-4 c 2.9e-4,3e-4 2.1602,-2.15973 4.30069,-4.30011 z"
       id="path1711-6-2-1-9"
       inkscape:connector-curvature="0"
       sodipodi:nodetypes="cczcccccccccc"
       inkscape:export-xdpi="299.96201"
       inkscape:export-ydpi="299.96201"
       inkscape:export-filename="/Users/jsheunis/Desktop/path4588-1.png" />
    <path
       id="rect2370-3"
       style="fill:#f9d075;stroke-width:0.170661"
       d="m 16.645974,120.24907 h 2.653786 c 2.363665,0 4.266541,1.90288 4.266541,4.26654 v 6.81793 c 0,2.36367 -1.902876,4.26654 -4.266541,4.26654 h -2.653786 c -2.363665,0 -4.266541,-1.90287 -4.266541,-4.26654 v -6.81793 c 0,-2.36366 1.902876,-4.26654 4.266541,-4.26654 z" />
    <path
       d="m 12.172921,118.29839 c 0,0 -1.26972,-2.30222 -0.646802,-4.50547 0,0 2.682789,-0.71849 4.503753,1.38919 z"
       fill="#f9d075"
       id="path2372-5"
       style="stroke-width:0.170661" />
    <path
       d="m 12.563735,117.7062 c 0,0 -0.943765,-1.70661 -0.481272,-3.3518 0,0 1.995045,-0.53416 3.350082,1.03422 z"
       fill="#ffe9a1"
       id="path2374-4"
       style="stroke-width:0.170661" />
    <path
       d="m 24.098746,117.7062 c 0,0 0.943761,-1.70661 0.481276,-3.3518 0,0 -1.995024,-0.53416 -3.350086,1.03422 z"
       fill="#ffe9a1"
       id="path2376-3"
       style="stroke-width:0.170661" />
    <path
       d="m 24.487864,118.29839 c 0,0 1.26972,-2.30222 0.646802,-4.50547 0,0 -2.68279,-0.71849 -4.503757,1.38919 z"
       fill="#f9d075"
       id="path2378-6"
       style="stroke-width:0.170661" />
    <path
       d="m 24.098746,117.7062 c 0,0 0.943761,-1.70661 0.481276,-3.3518 0,0 -1.995024,-0.53416 -3.350086,1.03422 z"
       fill="#ffe9a1"
       id="path2380-5"
       style="stroke-width:0.170661" />
    <path
       d="m 25.132966,121.06993 q 0,0.27307 -0.02388,0.54272 c -0.288418,3.34495 -3.213553,5.97314 -6.778682,5.97314 -3.191369,0 -5.870754,-2.10596 -6.604596,-4.94917 a 6.2854672,6.2854672 0 0 1 -0.19789,-1.56838 c 0,-3.59756 3.046305,-6.51586 6.802577,-6.51586 3.756262,0 6.802566,2.92342 6.802566,6.51755 z"
       fill="#f9d075"
       id="path2382-9"
       style="stroke-width:0.170661" />
    <path
       d="m 12.534721,124.18793 -0.511984,-1.10247 H 9.9065263 l 1.1946267,1.05468 -0.861838,0.28671 c 0,0 7.137081,7.66441 15.808397,0 l -0.670693,-0.23892 1.054677,-0.90963 -0.77652,-0.19286 0.286714,-0.57515 -1.157082,0.0478 -1.334579,2.48994 -4.45084,1.96604 z"
       fill="#ffe9a1"
       id="path2384-5"
       style="stroke-width:0.170661" />
    <path
       d="m 25.110785,121.61605 c -0.288432,3.34496 -3.213571,5.97316 -6.778696,5.97316 -3.191369,0 -5.870762,-2.10596 -6.604596,-4.9492 0.341324,0.31061 0.646795,0.76116 0.919863,1.0547 a 3.3142485,3.3142485 0 0 0 0.682646,0.60926 c 0.418132,0.256 0.926697,0.31572 1.4165,0.34132 0.442016,0.0168 0.933515,-0.0105 1.24924,-0.32084 0.315728,-0.31059 0.351554,-0.76285 0.532463,-1.14856 a 1.9489556,1.9489556 0 0 1 1.443799,-1.05298 2.440461,2.440461 0 0 1 1.759523,0.43178 1.2867886,1.2867886 0 0 1 0.351554,0.34133 3.351794,3.351794 0 0 1 0.240638,0.58537 c 0.39423,0.95569 1.667365,1.3397 2.628191,0.95741 0.960834,-0.38228 1.597397,-1.34653 1.83462,-2.35343 0.04446,-0.19978 0.138143,-0.44884 0.324255,-0.46932 z"
       fill="#ffe9a1"
       id="path2390-1"
       style="stroke-width:0.170661" />
    <path
       d="m 18.234822,124.81083 -0.286713,0.28672 a 0.6024355,0.6024355 0 0 0 0.527344,0 z"
       fill="#f25f1d"
       id="path2392-7"
       style="stroke-width:0.170661" />
    <path
       d="m 16.869529,124.97808 c 0,0 1.341391,0.62292 1.341391,-0.95741"
       fill="none"
       stroke="#2b1f0e"
       stroke-linecap="round"
       stroke-miterlimit="10"
       stroke-width="0.341322"
       id="path2402-8" />
    <path
       d="m 19.552336,124.97808 c 0,0 -1.341416,0.62292 -1.341416,-0.95741"
       fill="none"
       stroke="#2b1f0e"
       stroke-linecap="round"
       stroke-miterlimit="10"
       stroke-width="0.341322"
       id="path2404-8" />
    <path
       id="ellipse2406-3"
       style="fill:#f25f1d;stroke-width:0.170661"
       d="m 18.762156,123.37218 a 0.52734438,0.67070015 0 0 1 -0.527345,0.6707 0.52734438,0.67070015 0 0 1 -0.527344,-0.6707 0.52734438,0.67070015 0 0 1 0.527344,-0.6707 0.52734438,0.67070015 0 0 1 0.527345,0.6707 z" />
    <path
       id="circle7322"
       style="fill:#383f4d;stroke-width:0.0414921"
       d="m 15.910096,121.38313 a 0.73482538,0.73482538 0 0 1 -0.734826,0.73483 0.73482538,0.73482538 0 0 1 -0.734825,-0.73483 0.73482538,0.73482538 0 0 1 0.734825,-0.73482 0.73482538,0.73482538 0 0 1 0.734826,0.73482 z" />
    <path
       id="circle7324"
       style="fill:#383f4d;stroke-width:0.0414921"
       d="m 22.016076,121.38313 a 0.73482538,0.73482538 0 0 1 -0.734825,0.73483 0.73482538,0.73482538 0 0 1 -0.734825,-0.73483 0.73482538,0.73482538 0 0 1 0.734825,-0.73482 0.73482538,0.73482538 0 0 1 0.734825,0.73482 z" />
    <path
       id="circle7326"
       style="fill:#ffffff;stroke-width:0.0414921"
       d="m 15.627532,121.15658 a 0.22613215,0.22613215 0 0 1 -0.226129,0.22614 0.22613215,0.22613215 0 0 1 -0.226133,-0.22614 0.22613215,0.22613215 0 0 1 0.226133,-0.22613 0.22613215,0.22613215 0 0 1 0.226129,0.22613 z" />
    <path
       id="circle7328"
       style="fill:#ffffff;stroke-width:0.0414921"
       d="m 21.733516,121.15658 a 0.22613215,0.22613215 0 0 1 -0.226132,0.22614 0.22613215,0.22613215 0 0 1 -0.226133,-0.22614 0.22613215,0.22613215 0 0 1 0.226133,-0.22613 0.22613215,0.22613215 0 0 1 0.226132,0.22613 z" />
    <path
       d="m 22.638047,119.79979 h -2.655498 a 0.68047113,0.68047113 0 0 0 -0.678394,0.6784 v 1.80906 a 0.68047113,0.68047113 0 0 0 0.678394,0.67839 h 2.655498 a 0.68047113,0.68047113 0 0 0 0.678398,-0.67839 v -1.80906 a 0.68047113,0.68047113 0 0 0 -0.678398,-0.6784 z m 0.112854,2.03561 a 0.68047113,0.68047113 0 0 1 -0.67839,0.6784 h -1.526085 a 0.68047113,0.68047113 0 0 1 -0.678395,-0.6784 v -0.90453 a 0.68047113,0.68047113 0 0 1 0.678395,-0.6784 h 1.526494 a 0.68047113,0.68047113 0 0 1 0.677981,0.67798 z"
       fill="#69f0ae"
       id="path7330"
       style="fill:#535461;fill-opacity:1;stroke-width:0.0414921" />
    <path
       d="m 13.140076,120.47819 v 1.80906 a 0.68047113,0.68047113 0 0 0 0.678398,0.67839 h 2.655498 a 0.68047113,0.68047113 0 0 0 0.678398,-0.67839 v -1.80906 a 0.68047113,0.68047113 0 0 0 -0.678398,-0.6784 h -2.655498 a 0.68047113,0.68047113 0 0 0 -0.678398,0.6784 z m 0.565537,0.45226 a 0.68047113,0.68047113 0 0 1 0.678398,-0.67839 h 1.526498 a 0.68047113,0.68047113 0 0 1 0.678394,0.67839 v 0.90453 a 0.68047113,0.68047113 0 0 1 -0.678394,0.6784 h -1.526915 a 0.68047113,0.68047113 0 0 1 -0.677981,-0.67798 z"
       fill="#69f0ae"
       id="path7332"
       style="fill:#535461;fill-opacity:1;stroke-width:0.0414921" />
    <path
       d="m 19.195444,121.61051 a 1.721094,1.721094 0 0 0 -1.877939,0 c -0.156835,0.10041 -0.370524,0.12157 -0.497906,0.005 l -0.159742,-0.15977 c -0.124478,-0.11535 -0.05436,-0.39459 0.192939,-0.55558 a 2.5725127,2.5725127 0 0 1 2.804453,0 c 0.248953,0.16099 0.318657,0.44065 0.192939,0.55558 l -0.158085,0.1585 c -0.125722,0.11784 -0.339408,0.0971 -0.496659,-0.003 z"
       fill="#69f0ae"
       id="path7334"
       style="fill:#535461;fill-opacity:1;stroke-width:0.0414921" />
    <path
       d="m 26.01291,137.34236 c -3.753413,3.96353 -4.69229,3.96574 -8.740194,3.96574 -5.084559,0 -9.5273795,-1.90054 -13.3284588,-5.70161 -3.80107939,-3.80108 -5.7016191,-8.78692 -5.7016191,-14.9575 0,-6.21995 1.94990248,-11.1811 5.8497147,-14.88345 3.8998049,-3.70235 8.4166732,-5.55352 13.5505992,-5.55352 3.398469,0.065 7.041134,0.92667 8.657805,1.88234 1.616674,0.95568 -0.177296,2.23005 -0.08685,3.34521 0.09047,1.11515 -0.574459,3.34343 -1.979297,4.11157 -1.404835,0.76815 -2.389597,0.0762 -5.258817,-0.009 -2.616329,0 -4.862423,1.08603 -6.738277,3.25807 -1.875859,2.12268 -2.8137879,4.81306 -2.8137879,8.07113 0,3.25806 0.9626139,5.92375 2.8878349,7.99707 1.925221,2.02395 4.171311,3.11038 6.738274,3.11038 4.50594,-0.32814 1.162841,-0.0819 5.150698,-1.23084"
       style="font-style:normal;font-variant:normal;font-weight:bold;font-stretch:normal;font-size:96px;line-height:25px;font-family:'Montserrat Alternates';-inkscape-font-specification:'Montserrat Alternates Bold';text-align:start;letter-spacing:0px;word-spacing:0px;writing-mode:lr-tb;text-anchor:start;display:inline;fill:#ffa200;fill-opacity:1;stroke:none;stroke-width:2.40239;stroke-linecap:butt;stroke-linejoin:miter;stroke-miterlimit:10;stroke-dasharray:none;stroke-opacity:1"
       id="path4616-0-6"
       inkscape:connector-curvature="0"
       sodipodi:nodetypes="csssscssscscscc"
       inkscape:export-filename="/Users/jsheunis/Desktop/path4588-1.png"
       inkscape:export-xdpi="299.96201"
       inkscape:export-ydpi="299.96201" />
    <path
       style="display:inline;fill:#ffa200;fill-opacity:1;fill-rule:evenodd;stroke:none;stroke-width:2.40239;stroke-linecap:butt;stroke-linejoin:miter;stroke-miterlimit:10;stroke-dasharray:none;stroke-opacity:0"
       d="m 26.825297,102.49738 2.587728,5.43918 -5.241898,2.96746 -5.94047,-1.87453 5.241928,-2.96746 -2.587761,-5.43918 z"
       id="rect2037-6-5"
       inkscape:connector-curvature="0"
       sodipodi:nodetypes="ccccccc"
       inkscape:export-filename="/Users/jsheunis/Desktop/path4588-1.png"
       inkscape:export-xdpi="299.96201"
       inkscape:export-ydpi="299.96201" />
    <path
       style="display:inline;fill:#ffa200;fill-opacity:1;fill-rule:evenodd;stroke:none;stroke-width:2.40239;stroke-linecap:butt;stroke-linejoin:miter;stroke-miterlimit:10;stroke-dasharray:none;stroke-opacity:0"
       d="m 24.200536,130.74774 5.280419,2.89796 -2.51583,5.47302 -5.914676,1.95439 2.515856,-5.47303 -5.280449,-2.89795 z"
       id="rect2037-6-5-3"
       inkscape:connector-curvature="0"
       sodipodi:nodetypes="ccccccc"
       inkscape:export-filename="/Users/jsheunis/Desktop/path4588-1.png"
       inkscape:export-xdpi="299.96201"
       inkscape:export-ydpi="299.96201" />
    <path
       id="ellipse2440-5-1"
       style="fill:#f9d075;stroke-width:0.195125"
       d="m 26.392038,130.23884 a 2.5639338,3.1044281 0 0 1 -2.563935,3.10443 2.5639338,3.1044281 0 0 1 -2.563932,-3.10443 2.5639338,3.1044281 0 0 1 2.563932,-3.10443 2.5639338,3.1044281 0 0 1 2.563935,3.10443 z" />
    <path
       id="ellipse2440-5-1-2"
       style="fill:#f9d075;stroke-width:0.195125"
       d="m 13.388338,128.79596 a 2.5639338,3.1044281 0 0 1 -2.563935,3.10443 2.5639338,3.1044281 0 0 1 -2.5639349,-3.10443 2.5639338,3.1044281 0 0 1 2.5639349,-3.10443 2.5639338,3.1044281 0 0 1 2.563935,3.10443 z" />
    <path
       id="ellipse2440-5"
       style="fill:#ffe9a1;stroke-width:0.170661"
       d="m 26.086969,130.22422 a 2.2424937,2.7152262 0 0 1 -2.242496,2.71523 2.2424937,2.7152262 0 0 1 -2.242492,-2.71523 2.2424937,2.7152262 0 0 1 2.242492,-2.71523 2.2424937,2.7152262 0 0 1 2.242496,2.71523 z" />
    <path
       id="ellipse2442-2"
       style="fill:#ffe9a1;stroke-width:0.170661"
       d="m 13.09803,128.7929 a 2.2424937,2.7152262 0 0 1 -2.242495,2.71522 2.2424937,2.7152262 0 0 1 -2.2424924,-2.71522 2.2424937,2.7152262 0 0 1 2.2424924,-2.71523 2.2424937,2.7152262 0 0 1 2.242495,2.71523 z" />
    <text
       xml:space="preserve"
       style="font-size:42.3676px;line-height:0.8;font-family:'Nanum Pen';-inkscape-font-specification:'Nanum Pen, Normal';stroke-width:2.37103"
       x="93.90583"
       y="134.60011"
       id="text3953"
       transform="scale(0.9572114,1.0447013)"><tspan
         sodipodi:role="line"
         id="tspan3951"
         x="93.90583"
         y="134.60011"
         style="font-style:normal;font-variant:normal;font-weight:normal;font-stretch:normal;font-size:42.3676px;font-family:'Courier New';-inkscape-font-specification:'Courier New, Normal';font-variant-ligatures:normal;font-variant-caps:normal;font-variant-numeric:normal;font-variant-east-asian:normal;fill:#333333;fill-opacity:1;stroke-width:2.37103">DEMO</tspan></text>
  </g>
</svg>
